<svg width="88" height="86" viewBox="0 0 88 86" fill="none" xmlns="http://www.w3.org/2000/svg">
<g clip-path="url(#clip0)">
<path d="M42.2352 13.9509V1.86786V1.86051C42.2352 0.828852 41.3816 0 40.3237 0H0.0609798V1.86051H37.5897L29.9294 9.30254H0.0609798V11.1616H28.0221L20.3604 18.6036H0.0609798V20.4553H18.4488L16.9202 21.9484C16.9188 21.9558 16.9159 21.9558 16.9117 21.9602L16.8932 21.9793H16.8947C16.5657 22.3173 16.3601 22.7685 16.3601 23.2711C16.3601 23.4695 16.4097 23.6678 16.4806 23.8589L16.4607 23.8662L17.8575 27.9003H0.0609798V29.7623H18.5042L21.0893 37.1999H0.0609798V39.0633H28.8162V39.0677H26.9061C27.954 39.0677 28.812 39.8922 28.8162 40.9194V46.4936H0.0609798V48.3527H40.3237C41.3801 48.3527 42.2352 47.5209 42.2352 46.4936V30.694C42.2352 29.6667 41.3816 28.8349 40.3237 28.8349V28.832H32.7924V28.8158L34.5281 28.8188C33.4901 28.7997 32.652 27.9826 32.652 26.9627C32.652 26.5306 32.808 26.1412 33.0633 25.8179L41.8226 15.1016L41.7985 15.0854C42.0622 14.768 42.2352 14.3815 42.2352 13.9509Z" fill="white"/>
<path d="M86.3253 1.8561V0H46.0696C45.016 0 44.1539 0.828852 44.1539 1.8561V13.9509C44.1539 14.3815 44.334 14.768 44.5991 15.0869L44.5708 15.103L53.4378 25.9604C53.642 26.2485 53.7753 26.5909 53.7753 26.9642C53.7753 27.984 52.9316 28.7997 51.8978 28.8188L53.635 28.8158V28.8261H46.0668V28.8305C45.016 28.8305 44.1539 29.6667 44.1539 30.6925V46.4995C44.1539 47.5223 45.016 48.3541 46.0696 48.3541H86.3253V46.4995H57.5715V39.4587L57.5757 40.9253C57.5757 39.9025 58.4351 39.0692 59.4958 39.0692H57.5715V39.0648H86.3253V37.2014H65.3027L67.8821 29.7637H86.3253V27.9018H68.5287L69.9383 23.8633L69.917 23.8589C69.9766 23.6678 70.0319 23.4695 70.0319 23.2666C70.0319 22.7685 69.8376 22.3173 69.4959 21.9822V21.9793L69.4732 21.9631C69.4689 21.9558 69.4647 21.9558 69.4618 21.9469L67.9431 20.4494H86.3253V18.6021H66.0287L58.3783 11.1557H86.3239V9.30107H56.4569L48.8107 1.8561H86.3253V1.8561Z" fill="white"/>
<path d="M2.17387 58.3018C2.17387 57.0292 1.60949 56.4311 0 56.384V55.5214C2.0817 55.6536 3.91099 55.7888 5.65519 55.7888C7.39088 55.7888 9.24002 55.6522 11.3019 55.5214V56.384C9.70231 56.4311 9.14218 57.0292 9.14218 58.3018V67.3428H20.5277V58.3018C20.5277 57.0292 19.9605 56.4311 18.3623 56.384V55.5214C20.4341 55.6536 22.2705 55.7888 24.0119 55.7888C25.7589 55.7888 27.591 55.6522 29.6656 55.5214V56.384C28.059 56.4311 27.4988 57.0292 27.4988 58.3018V82.2342C27.4988 83.5113 28.059 84.1094 29.6656 84.1447V85.0161C27.591 84.8721 25.7603 84.7355 24.0119 84.7355C22.2705 84.7355 20.4341 84.8721 18.3623 85.0161V84.1447C19.9605 84.1094 20.5277 83.5113 20.5277 82.2342V71.7266H9.14218V82.2342C9.14218 83.5113 9.70231 84.1094 11.3019 84.1447V85.0161C9.24002 84.8721 7.39088 84.7355 5.65519 84.7355C3.91099 84.7355 2.0817 84.8721 0 85.0161V84.1447C1.60949 84.1094 2.17387 83.5113 2.17387 82.2342V58.3018Z" fill="white"/>
<path d="M35.2329 74.6952C36.1674 79.6742 39.7948 82.0005 44.8345 82.0005C47.6082 82.0005 51.6114 81.2231 51.6114 77.8034C51.6114 75.0567 48.6931 74.3292 46.5362 73.6914L43.191 72.7332C38.3881 71.3636 33.5795 69.3973 33.5795 64.0112C33.5795 56.9306 40.6414 54.785 47.6593 54.785C50.6244 54.785 53.6832 55.2906 56.42 56.2473C56.42 59.5392 56.6044 62.3197 56.7944 64.696H55.8925C54.9112 60.4871 51.0966 58.5296 46.8538 58.5296C44.5041 58.5296 40.5534 59.257 40.5534 62.4078C40.5534 64.9253 42.8152 65.6571 44.7452 66.2009L49.6843 67.5676C54.4418 68.8932 58.8647 70.5906 58.8647 76.5189C58.8647 82.5457 52.6012 85.7421 44.9295 85.7421C41.4922 85.7421 37.8719 85.1969 34.721 84.1079C34.721 80.4942 34.5721 77.3434 34.3424 74.6937H35.2329V74.6952Z" fill="white"/>
<path d="M64.9425 58.5796C64.9425 57.2995 64.3795 56.7088 62.7814 56.6617V55.7903H86.3522C86.4018 58.3033 86.5025 60.7237 86.7351 63.1897H85.8474C85.3723 60.6811 84.7144 59.8096 82.1746 59.8096H71.9136V67.7072H78.3615C80.4801 67.7072 80.8034 67.0224 81.0799 65.3853H81.9818C81.8357 66.5286 81.6967 68.4935 81.6967 69.7147C81.6967 70.955 81.8357 72.9654 81.9818 74.0603H81.0799C80.802 72.4188 80.4786 71.7354 78.3615 71.7354H71.9136V80.7279H82.6908C85.2362 80.7279 86.0275 79.9034 86.8329 76.0678H88.0014C87.5774 79.8182 87.4895 82.2371 87.4498 84.7428H62.7814V83.8831C64.3795 83.8331 64.9425 83.2335 64.9425 81.9623V58.5796Z" fill="white"/>
</g>
<defs>
<clipPath id="clip0">
<rect width="88" height="85.7436" fill="white"/>
</clipPath>
</defs>
</svg>
